<svg xmlns="http://www.w3.org/2000/svg" width="14.047" height="16" viewBox="0 0 14.047 16">
  <g id="Group_433" data-name="Group 433" transform="translate(-92 -455.097)">
    <path id="Path_114" data-name="Path 114" d="M60.362,43.472a.031.031,0,0,1,0,.012ZM71.213,44a.694.694,0,0,1-.274-.064l-1.624-.647-.012-.005a.256.256,0,0,0-.112-.024.266.266,0,0,0-.1.021c-.039.017-.395.167-.768.282a5.765,5.765,0,0,1-1.471.266,5.05,5.05,0,0,1-3.8-1.755,6.428,6.428,0,0,1-1.431-5.4,5.988,5.988,0,0,1,1.874-3.34,5.134,5.134,0,0,1,7.36.471,6.092,6.092,0,0,1,1.508,4.075,6.223,6.223,0,0,1-.866,3.185l-.005.009-.021.032-.014.022,0,.009a.736.736,0,0,0-.031.067l.45,1.8a.945.945,0,0,1,.032.228.822.822,0,0,1-.2.546A.65.65,0,0,1,71.213,44Z" transform="translate(33.687 423.097)" fill="#4f4789"/>
    <path id="Path_115" data-name="Path 115" d="M41.94,223.934a.586.586,0,0,0-.382-.307,3.519,3.519,0,0,0-.656-.063,7.422,7.422,0,0,1-4.781-2.225,7.6,7.6,0,0,1-2.1-4.27,4.443,4.443,0,0,1-.052-.461.606.606,0,0,0-.384-.567.586.586,0,0,0-.655.166,2.8,2.8,0,0,0-.43.651,6.251,6.251,0,0,0,.408,5.684.516.516,0,0,1,.075.41c-.1.534-.279,1.477-.371,1.966a.92.92,0,0,0,.3.868l.017.015a.892.892,0,0,0,.561.2.853.853,0,0,0,.334-.068l1.986-.782a.293.293,0,0,1,.212,0,6.737,6.737,0,0,0,2.367.455,6.421,6.421,0,0,0,2.78-.631,2,2,0,0,0,.705-.421A.578.578,0,0,0,41.94,223.934Z" transform="translate(60.001 245.094)" fill="#4f4789"/>
  </g>
</svg>
