<svg xmlns="http://www.w3.org/2000/svg" width="25.889" height="29.314" viewBox="0 0 25.889 29.314">
  <g id="home" transform="translate(-366.876 -28.747)">
    <path id="Path_512" data-name="Path 512" d="M76.249,99.2a.5.5,0,0,0-.691,0l-11.5,11.08a.506.506,0,0,0-.154.365l0,10.4a2.008,2.008,0,0,0,2,2.016h6a1,1,0,0,0,1-1.008v-8.568a.5.5,0,0,1,.5-.5h5a.5.5,0,0,1,.5.5v8.568a1,1,0,0,0,1,1.008h6a2.008,2.008,0,0,0,2-2.016v-10.4a.506.506,0,0,0-.154-.365Z" transform="translate(303.845 -65)" fill="#9c9c9c"/>
    <path id="Path_513" data-name="Path 513" d="M41.614,44.728,37.58,40.435V33.92a.915.915,0,0,0-.863-.96H34.128a.915.915,0,0,0-.863.96v1.92l-3.124-3.322a1.64,1.64,0,0,0-2.391,0L16.278,44.727a1.059,1.059,0,0,0-.072,1.342.833.833,0,0,0,.613.33.816.816,0,0,0,.637-.267l11.191-11.9a.4.4,0,0,1,.6,0l11.193,11.9a.8.8,0,0,0,1.218-.026A1.064,1.064,0,0,0,41.614,44.728Z" transform="translate(350.876 -3.253)" fill="#9c9c9c"/>
  </g>
</svg>
