<svg xmlns="http://www.w3.org/2000/svg" width="21" height="21" viewBox="0 0 21 21">
  <path id="ic_dns_24px" d="M22.833,14.667H4.167A1.17,1.17,0,0,0,3,15.833v7A1.17,1.17,0,0,0,4.167,24H22.833A1.17,1.17,0,0,0,24,22.833v-7A1.17,1.17,0,0,0,22.833,14.667Zm-15.167,7A2.333,2.333,0,1,1,10,19.333,2.34,2.34,0,0,1,7.667,21.667ZM22.833,3H4.167A1.17,1.17,0,0,0,3,4.167v7a1.17,1.17,0,0,0,1.167,1.167H22.833A1.17,1.17,0,0,0,24,11.167v-7A1.17,1.17,0,0,0,22.833,3ZM7.667,10A2.333,2.333,0,1,1,10,7.667,2.34,2.34,0,0,1,7.667,10Z" transform="translate(-3 -3)" fill="#1a2552"/>
</svg>
